{"title":"Passenger.57.1992.NORDiC.MPEG2.CONVERT.DD5.1-DUP","uid":14349187,"size":3845895914,"categoryP":"video","categoryS":"movies","magnet":"?xt=urn:btih:c97324a49e7b5f4750e53b08b0265d530f41a7ce&amp;dn=Passenger.57.1992.NORDiC.MPEG2.CONVERT.DD5.1-DUP&amp;tr=udp%3A%2F%2Ftracker.leechers-paradise.org%3A6969&amp;tr=udp%3A%2F%2Fzer0day.ch%3A1337&amp;tr=udp%3A%2F%2Fopen.demonii.com%3A1337&amp;tr=udp%3A%2F%2Ftracker.coppersurfer.tk%3A6969&amp;tr=udp%3A%2F%2Fexodus.desync.com%3A6969","seeders":0,"leechers":1,"uploader":null,"files":1,"time":1461009981,"description":"Format                                   : Matroska\r\nFormat version                           : Version 2\r\nFile size                                : 3.58 GiB\r\nDuration                                 : 1h 20mn\r\nOverall bit rate mode                    : Variable\r\nOverall bit rate                         : 6 385 Kbps\r\nEncoded date                             : UTC 2016-04-11 04:37:09\r\nWriting application                      : MakeMKV v1.9.9 win(x64-release)\r\nWriting library                          : libmakemkv v1.9.9 (1.3.3/1.4.4) win(x64-release)\r\nOriginal source medium                   : DVD-Video\r\n\r\nVideo\r\nID                                       : 1\r\nID in the original source medium         : 224 (0xE0)\r\nFormat                                   : MPEG Video\r\nFormat version                           : Version 2\r\nFormat profile                           :   \r\nFormat settings, BVOP                    : Yes\r\nFormat settings, Matrix                  : Default\r\nFormat settings, GOP                     : M=3, N=15\r\nFormat settings, picture structure       : Frame\r\nCodec ID                                 : V_MPEG2\r\nCodec ID/Info                            : MPEG 1 or 2 Video\r\nDuration                                 : 1h 20mn\r\nBit rate mode                            : Variable\r\nBit rate                                 : 5 987 Kbps\r\nMaximum bit rate                         : 7 000 Kbps\r\nWidth                                    : 720 pixels\r\nHeight                                   : 576 pixels\r\nDisplay aspect ratio                     : 16:9\r\nFrame rate mode                          : Constant\r\nFrame rate                               : 25.000 fps\r\nStandard                                 : PAL\r\nColor space                              : YUV\r\nChroma subsampling                       : 4:2:0\r\nBit depth                                : 8 bits\r\nScan type                                : Interlaced\r\nScan order                               : Top Field First\r\nCompression mode                         : Lossy\r\nBits/(Pixel*Frame)                       : 0.577\r\nTime code of first frame                 : 01:00:00:02\r\nTime code source                         : Group of pictures header\r\nGOP, Open/Closed                         : Open\r\nGOP, Open/Closed of first frame          : Closed\r\nStream size                              : 3.36 GiB (94%)\r\nLanguage                                 : English\r\nDefault                                  : No\r\nForced                                   : No\r\n\r\nAudio\r\nID                                       : 2\r\nID in the original source medium         : 189 (0xBD)-128 (0x80)\r\nFormat                                   : AC-3\r\nFormat/Info                              : Audio Coding 3\r\nMode extension                           : CM (complete main)\r\nFormat settings, Endianness              : Big\r\nCodec ID                                 : A_AC3\r\nDuration                                 : 1h 20mn\r\nBit rate mode                            : Constant\r\nBit rate                                 : 384 Kbps\r\nChannel(s)                               : 6 channels\r\nChannel positions                        : Front: L C R, Side: L R, LFE\r\nSampling rate                            : 48.0 KHz\r\nFrame rate                               : 31.250 fps (1536 spf)\r\nCompression mode                         : Lossy\r\nStream size                              : 221 MiB (6%)\r\nTitle                                    : Surround 5.1\r\nLanguage                                 : English\r\nDefault                                  : Yes\r\nForced                                   : No\r\n\r\nText #1\r\nID                                       : 3\r\nID in the original source medium         : 189 (0xBD)-36 (0x24)\r\nFormat                                   : VobSub\r\nCodec ID                                 : S_VOBSUB\r\nCodec ID/Info                            : Picture based subtitle format used on DVDs\r\nDuration                                 : 1h 17mn\r\nBit rate                                 : 2 089 bps\r\nCount of elements                        : 776\r\nStream size                              : 1.16 MiB (0%)\r\nLanguage                                 : Swedish\r\nDefault                                  : Yes\r\nForced                                   : No\r\n\r\nText #2\r\nID                                       : 4\r\nID in the original source medium         : 189 (0xBD)-37 (0x25)\r\nFormat                                   : VobSub\r\nCodec ID                                 : S_VOBSUB\r\nCodec ID/Info                            : Picture based subtitle format used on DVDs\r\nDuration                                 : 1h 17mn\r\nBit rate                                 : 2 386 bps\r\nCount of elements                        : 882\r\nStream size                              : 1.32 MiB (0%)\r\nLanguage                                 : Norwegian\r\nDefault                                  : No\r\nForced                                   : No\r\n\r\nText #3\r\nID                                       : 5\r\nID in the original source medium         : 189 (0xBD)-38 (0x26)\r\nFormat                                   : VobSub\r\nCodec ID                                 : S_VOBSUB\r\nCodec ID/Info                            : Picture based subtitle format used on DVDs\r\nDuration                                 : 1h 17mn\r\nBit rate                                 : 2 371 bps\r\nCount of elements                        : 874\r\nStream size                              : 1.31 MiB (0%)\r\nLanguage                                 : Danish\r\nDefault                                  : No\r\nForced                                   : No\r\n\r\nText #4\r\nID                                       : 6\r\nID in the original source medium         : 189 (0xBD)-39 (0x27)\r\nFormat                                   : VobSub\r\nCodec ID                                 : S_VOBSUB\r\nCodec ID/Info                            : Picture based subtitle format used on DVDs\r\nDuration                                 : 1h 17mn\r\nBit rate                                 : 2 219 bps\r\nCount of elements                        : 594\r\nStream size                              : 1.23 MiB (0%)\r\nLanguage                                 : Finnish\r\nDefault                                  : No\r\nForced                                   : No","torrent":{"xt":"urn:btih:c97324a49e7b5f4750e53b08b0265d530f41a7ce","amp;dn":"Passenger.57.1992.NORDiC.MPEG2.CONVERT.DD5.1-DUP","amp;tr":["udp%3A%2F%2Ftracker.leechers-paradise.org%3A6969","udp%3A%2F%2Fzer0day.ch%3A1337","udp%3A%2F%2Fopen.demonii.com%3A1337","udp%3A%2F%2Ftracker.coppersurfer.tk%3A6969","udp%3A%2F%2Fexodus.desync.com%3A6969"],"infoHash":"c97324a49e7b5f4750e53b08b0265d530f41a7ce","infoHashBuffer":{"type":"Buffer","data":[201,115,36,164,158,123,95,71,80,229,59,8,176,38,93,83,15,65,167,206]},"announce":[],"urlList":[]}}